<svg xmlns="http://www.w3.org/2000/svg" version="1.1" xmlns:xlink="http://www.w3.org/1999/xlink" xmlns:svgjs="http://svgjs.dev/svgjs" width="1000" height="1000" viewBox="0 0 1000 1000"><rect width="1000" height="1000" fill="#282634"></rect><g transform="matrix(0.7,0,0,0.7,150.0000000000001,106.25)"><svg viewBox="0 0 320 360" data-background-color="#282634" preserveAspectRatio="xMidYMid meet" height="1125" width="1000" xmlns="http://www.w3.org/2000/svg" xmlns:xlink="http://www.w3.org/1999/xlink"><g id="tight-bounds" transform="matrix(1,0,0,1,-5.684341886080802e-14,0)"><svg viewBox="0 0 320 360" height="360" width="320"><g><svg></svg></g><g><svg viewBox="0 0 320 360" height="360" width="320"><g><path xmlns="http://www.w3.org/2000/svg" d="M85.508 32.884c0-1.117 0.558-2.233 1.675-2.233 1.117 0 2.233 0.558 2.234 2.233 0.558 0 1.675 0 2.233-0.558 2.233 0 4.467-0.558 6.141 0 1.675 0.558 2.792 0.558 4.467 1.117 1.675 0.558 2.792 0 3.908-0.559 2.233-0.558 3.908-1.675 6.141-2.233 1.117-0.558 1.675-0.558 2.792-0.558 1.117-0.558 2.233-0.558 3.908-1.117 2.792-0.558 5.583-1.117 7.817-2.233 2.233-1.117 4.467-1.117 6.699-1.675 1.117 0 1.675-0.558 2.792-1.117 0.558 0 0.558-0.558 1.116-1.116 1.117-0.558 1.675-1.117 2.792-0.559 0.558 0.558 1.675 0.558 2.233 0h0.559c3.35 0 6.7-0.558 10.608 0 0.558 0 1.117 0 1.116 0 1.675-1.117 3.908-1.117 6.142-1.116 0.558 0 1.675 0 2.233 0h0.558c2.233 0 4.467 0 6.142 0.558 1.675 0 2.792 0.558 4.466 1.117 1.675 0 2.792 0 4.467 0.558 1.117 0 2.233 0 3.35 0 0.558 0 1.117 0 1.116 0 2.233 0.558 4.467 0.558 6.7 0.558 1.675 0.558 3.35 1.117 5.583 1.117 0.558 0 1.117 0 1.675 0 0.558 0 1.117 0.558 1.675 0.558l0.558 0.559c2.233 0 3.908 1.117 6.142 1.116 0.558 0 1.675 0 2.233 0.559 1.675 1.117 3.908 1.675 6.141 1.675 1.117 0 1.675 0.558 2.234 1.116 1.675 0.558 2.792 1.117 4.466 1.675 1.117 0.558 2.233 0 3.35 0.558 1.675 0.558 3.908 1.117 5.583 2.792 1.117 1.117 2.233 1.117 3.908 2.233 0.558 0 1.117 0.558 1.675 1.117 1.675 1.117 3.35 2.233 5.025 2.791 0.558 0 1.117 0.558 1.675 0.559 1.675 1.117 3.35 2.792 5.583 3.908 1.117 0.558 1.675 1.117 2.792 1.675h0.558c1.675 1.675 3.908 2.792 5.583 4.466 1.675 1.675 2.792 2.792 5.025 3.909 0 0 0 0 0 0.558 0.558 1.117 1.117 1.675 2.233 2.233 1.117 0.558 1.675 1.117 2.234 1.675 1.675 1.117 3.35 2.233 4.466 3.35 0.558 0.558 1.117 1.117 2.233 2.233 0.558 0.558 1.117 1.117 1.675 1.117 2.233 0.558 3.35 2.233 5.025 3.908 1.117 1.117 2.792 2.792 3.908 3.908 0.558 0.558 1.117 1.675 1.675 2.792 1.117 3.35 2.792 6.7 4.467 9.491 0 0 0 0.558 0.558 1.117v0.558c1.117 1.117 1.675 2.792 2.792 3.908 0.558 0.558 0.558 1.117 1.116 1.675 1.117 1.675 1.675 3.908 2.792 5.583 1.675 2.792 2.792 5.583 3.908 8.375v0.558c0.558 1.117 1.117 2.233 1.675 3.908 0 1.117 1.117 2.233 1.675 3.909 0.558 2.792 2.233 5.583 2.791 8.933 0 0.558 0.558 1.117 0.559 2.233 0.558 1.675 1.117 3.35 1.675 5.025 0 0.558 0.558 1.117 1.116 1.675 1.117 1.117 1.117 2.233 1.117 3.35-0.558 2.233 0 4.467 0.558 6.699 0 0.558 0 1.117 0 2.234 0.558 2.233 1.117 5.025 1.117 7.258 0 0.558 0 1.675 0 2.233 0 1.675 0.558 3.35 1.675 5.025 0 0.558 0.558 0.558 0.558 0.558 0.558 0.558 1.117 1.675 1.675 2.233 0.558 0.558 0.558 0.558 1.117 1.117 1.117 1.117 1.675 2.233 1.675 3.908 0 0.558-0.558 1.675-0.559 2.233 0 0.558 0 1.675 0.559 2.234 0.558 0.558 0.558 1.117 0.558 1.675 0 0.558-0.558 1.117-1.117 1.116v0c-0.558 1.675-2.792 2.233-3.35 3.908-0.558 2.233-1.117 4.467-1.674 6.7-0.558 1.675-0.558 2.792-0.559 4.467 0 1.675-0.558 2.792-0.558 4.466-0.558 2.233-1.117 4.467-1.675 6.7 0 1.117-0.558 2.233-0.558 3.35 0.558 0.558 1.117 1.117 1.675 1.116 1.117 1.117 2.233 2.233 3.349 3.35 0.558 0.558 0.558 1.117 0 1.117-0.558 0.558-1.117 0.558-1.674 0.558-0.558-0.558-1.675-1.117-2.234-1.116-0.558-0.558-1.675-1.117-2.791-0.559 0 1.117-0.558 2.233-0.559 2.792-0.558 1.117-1.117 2.792-1.116 3.908-0.558 2.233-1.675 3.908-2.233 6.142-1.117 2.792-2.233 5.025-3.35 7.258-0.558 1.117-1.117 2.233-1.675 3.35v0c0 1.675-1.675 3.35-2.234 5.024-1.117 2.233-2.233 4.467-3.349 7.258-0.558 1.117-1.117 2.233-1.675 2.792-1.117 2.792-2.233 5.025-3.909 7.258-1.117 1.675-2.233 2.792-3.349 3.35-1.117 1.117-2.233 2.233-3.35 3.35-0.558 0.558-1.117 1.117-1.675 1.675-0.558 0.558-0.558 0.558-1.117 1.116-1.117 1.675-2.792 2.792-3.908 4.467-1.117 1.117-1.675 2.233-3.35 3.35-1.117 1.117-2.233 2.792-3.908 3.35-0.558 0.558-1.117 1.675-1.675 2.233-0.558 0.558-1.117 1.675-1.675 2.233 0 1.117 0.558 2.233 0.558 2.792 0 1.675-1.675 2.233-2.791 1.116-1.675-1.117-1.675-1.117-3.35 0-1.675 1.117-3.35 2.792-5.583 3.35-0.558 0-0.558 0.558-1.117 0.559-1.117 0.558-1.675 1.675-2.792 2.233-1.117 1.117-2.792 1.675-3.908 2.791-0.558 0.558-1.117 0.558-1.675 1.117-1.675 1.117-3.35 1.675-5.024 3.35-0.558 0.558-1.117 0.558-1.675 1.117 0 0.558 0 0.558 0 1.116 0 1.117-1.117 2.233-2.792 1.675-1.675-0.558-2.792 0-4.466 0-1.675 0.558-3.35 1.675-5.025 2.233-0.558 0-1.117 0.558-1.675 1.117-1.675 1.117-3.35 1.675-5.025 2.233-1.117 0-2.233 1.117-3.35 1.117-0.558 0-1.117 0.558-1.675 0.558h-0.558c-2.233 1.675-4.467 2.792-6.7 4.467-0.558 0-0.558 0.558-1.117 1.116-0.558 1.117-1.117 1.675-2.233 1.675-2.792 0-3.908 2.233-3.35 4.467 0 0.558 0.558 1.117 0.559 1.675 0.558 1.117 0 2.233-0.559 2.791-0.558 0.558-2.233 0.558-2.791-0.558-1.117-1.117-1.675-2.233-2.234-3.908-0.558-1.117-1.675-2.233-2.791-2.792-1.117-0.558-2.233-0.558-3.35 0-0.558 0-0.558 0.558-1.117 0.558-1.117 1.117-2.792 1.675-4.466 1.117-0.558 0-1.675 0-1.675 0.558-0.558 0.558-0.558 1.675 0 2.234 1.117 1.117 0.558 2.233 0.558 3.908 0 2.233-1.675 3.35-3.908 2.233-0.558-0.558-1.117-0.558-1.675-1.117-0.558 0-0.558-0.558-0.558-1.116-0.558-0.558-0.558-1.675-1.117-2.792-1.117 0.558-2.233 0.558-3.35 1.117-0.558 0-1.117 0.558-1.675 0.558-1.675 0-2.233 0-2.791-1.675-0.558-1.675-1.675-1.675-2.792-2.233-2.233-0.558-5.025-0.558-7.258-1.675h-0.558c-2.233-1.675-4.467-1.675-7.258-1.675-1.675 0-3.35 0.558-5.025 0.558-1.675 0-2.792 0.558-3.908 1.675-0.558 0.558-1.117 1.117-1.675 1.117-0.558-0.558-0.558-1.117-1.117-1.675v-0.558c0-0.558-0.558-1.117-1.116-0.559-1.117 0.558-2.233-0.558-3.35-1.116-0.558-0.558-1.675-1.675-1.675-2.792-0.558-0.558-1.117-1.117-1.675-1.116-1.117 0-2.792-0.558-3.908-0.559-0.558 0-1.117 0-1.117-0.558-0.558-0.558-1.117-0.558-2.233-0.558-0.558 0-0.558-0.558-1.117-0.559 1.117 1.117 1.675 2.233 2.233 3.35 0 0.558 0.558 0.558 0.559 1.117 0.558 1.117 0 1.675-1.675 1.675-1.117 0-1.117 0-1.675 0.558 0 1.117 0 1.675 0 2.792 0 0.558 0 1.117-1.117 1.675 0 0-0.558 0-0.558 0.558-0.558 0.558-0.558 1.117 0 1.675 1.675 1.117 2.792 1.675 4.466 2.233 1.675 0 1.675 1.117 2.234 2.233 0.558 1.117 0 1.675-0.559 2.792-1.117 1.117-2.233 2.233-3.35 3.35-1.675 0.558-2.792 2.233-4.466 2.233-1.117 0-2.233-0.558-2.792-1.675-0.558-2.792-0.558-5.025 0.559-7.816 0-0.558 0.558-1.117 0-1.675-5.025 0-5.025-1.117-5.025-1.675 0-1.117 0.558-1.675 0.558-2.792 0.558-1.117 0-1.675-1.675-2.233-0.558 0-1.117 0-1.675 0-0.558 0-0.558-0.558-1.675-0.558 1.117-0.558 1.675-0.558 2.792-1.117-0.558-2.233-1.117-3.908-2.792-5.025-0.558-0.558-1.117-1.117-1.116-2.233 0-1.675-1.117-2.792-1.675-3.908-1.117-1.675-3.35-2.233-5.025-2.233-1.675-0.558-2.792-0.558-4.467-1.117-1.675-0.558-3.35-2.233-5.024-2.792-0.558-0.558-1.117-1.117-2.234-1.674-2.233-1.117-3.908-2.792-5.583-4.467-1.117-0.558-1.675-1.675-2.791-2.233-1.117-1.117-1.675-2.233-2.792-2.792-1.117-1.117-2.233-2.233-3.908-3.35-1.675-1.117-2.792-2.792-4.467-4.466-1.117-1.675-2.792-2.792-4.466-3.908-0.558 0-1.117 0-1.675 0-0.558 0-1.117 0.558-1.675 0.558-1.675 0.558-2.792 1.675-4.467 2.233 0.558-0.558 0.558-0.558 0-1.675-0.558-0.558-1.117-1.117-1.674-1.116-1.117 0-2.233 0-3.35 0-2.233 0-4.467 0.558-6.7 0.558-1.675 0-3.908 0.558-5.583 1.117 0.558 1.117 0.558 1.675 1.116 2.791-1.117 0.558-2.233 0.558-3.35 0.558-0.558 0-1.675 0.558-2.233 1.117-0.558 0-0.558 0.558-1.116 0-1.117-0.558-2.233 0-3.35 0.558h-0.559c0 0 0-0.558 0.559-0.558 0.558-0.558 1.117-1.117 1.675-1.675 0.558-0.558 1.117-0.558 2.233-1.117-0.558-0.558-0.558-1.117-0.558-1.116-0.558-0.558-1.117-0.558-1.675 0-0.558 0.558-1.117 1.117-1.675 1.675-0.558 0.558-1.117 0.558-1.675 0-0.558-0.558-0.558-1.117 0-1.675 0-0.558 0.558-1.117 1.116-1.675 0.558-0.558 0.558-1.117 1.117-1.675-1.117-1.117-1.675-2.233-2.792-2.792-1.675-1.117-3.35-2.792-4.466-4.466-1.117-2.233-2.792-3.908-5.025-5.025-0.558-0.558-1.117-1.117-1.675-1.675-0.558-0.558-0.558-0.558-1.116-1.117-1.675 0.558-2.792 1.675-4.467 2.234-0.558 0-0.558 0.558-1.117 1.116-0.558 1.117-1.675 1.117-2.791 1.117-0.558 0-1.117-0.558-0.558-1.117 0.558-1.117 1.117-2.233 2.791-1.675 0 0 0.558 0 0.558-0.558 1.117-1.117 2.233-2.792 3.909-3.908-0.558-1.675-1.675-2.792-2.234-3.908-0.558-0.558-0.558-1.117-0.558-2.234 0-0.558 0-0.558-0.558-1.116 0 0-0.558 0-1.117 0.558-0.558 0.558-1.675 1.117-2.791 0 0-0.558 0-1.117 0.558-1.675l0.558-0.558c1.675-0.558 1.675-2.233 1.675-3.908v-0.559c-0.558-1.117-0.558-1.675 0.558-2.791 1.675-1.117 3.35-3.35 3.909-5.025 0.558-1.117 1.675-1.675 2.791-2.792 1.117-1.117 2.233-2.233 2.792-3.908h0.558c2.233 0.558 2.792-1.117 3.908-2.791 0-0.558 0-1.117 0.559-1.117 1.117-1.117 1.117-2.233 0.558-3.908 0-0.558-0.558-1.675-0.558-2.233 0-0.558 0-0.558-0.559-1.117-1.675-1.117-1.675-2.233 0-3.35 1.117-0.558 1.117-1.675 1.675-2.233 0.558-1.117 0.558-2.233 0.559-3.908-0.558-1.675-0.558-3.908-1.117-5.583-0.558-2.233-1.117-5.025-1.675-7.259 0-0.558 0-0.558 0-1.116 0-1.675 0-2.792-0.558-4.467-0.558-0.558-0.558-1.675-0.559-2.233-0.558-1.675-1.117-2.792-2.791-3.35-1.675-1.117-3.908-1.675-5.583-2.791-0.558-0.558-1.117 0-1.675 0.558-0.558 1.117-1.675 2.233-2.234 3.35-0.558 0.558-1.117 1.675-1.675 2.791-1.117 1.117-3.35 2.233-5.024 0.559-0.558-1.117-1.117-1.675 0-2.792 1.117-1.675 2.233-3.35 3.908-4.466 0.558-0.558 1.117-1.675 1.675-2.234 0.558-1.117 0.558-2.233 0.558-3.35-0.558-2.233-1.117-4.467-1.117-7.258 0-2.792 0-5.025 0.559-7.816 0.558-1.117 0.558-2.792 1.116-3.908 0-0.558 0.558-1.675 1.117-2.233 1.117-1.117 2.233-2.233 2.792-3.909 0.558-1.675 1.675-3.35 1.675-5.024 0-0.558 0.558-1.117 0.558-1.675 0-0.558 0.558-1.675 0.558-2.234-0.558-1.675 0-2.792 0.558-3.908 0.558-1.117 1.117-2.792 1.675-3.908 1.117-2.233 1.117-5.025 3.35-7.258 0.558-1.117 1.117-2.233 1.675-3.35 0.558-2.233 1.675-3.908 2.792-5.583 0.558-0.558 0.558-0.558 0.558-1.117 0.558-1.675 1.675-3.35 2.792-5.025 1.117-1.675 1.117-3.35 1.675-5.024 0-0.558 0-1.117 0.558-1.675 1.675-1.675 1.117-3.908 0.558-6.142-1.117-2.792-1.675-5.583-1.116-8.374 0-0.558 0-1.117 0.558-1.117 0.558-1.117 0.558-1.675 1.117-2.792v-0.558c1.117-1.117 2.233-2.792 3.908-3.35 2.233-1.117 4.467-1.675 7.258-2.233 2.233 0 4.467-1.117 6.141-3.35 0-0.558 0.558-0.558 1.117-1.117l0.558-0.558c0.558-1.117 1.117-1.675 1.675-2.233 1.117-1.117 2.233-2.792 3.35-3.908 1.117-1.117 2.233-2.792 3.908-4.467l0.559-0.558c1.117-1.117 2.233-2.233 3.349-2.792 1.117-1.117 2.233-2.233 3.35-3.35 1.117-1.117 1.675-2.233 2.792-3.35 1.117-0.558 2.233-1.675 3.35-2.791 1.117-1.117 2.233-2.233 2.791-2.792 1.117-1.117 2.792-2.233 3.909-2.791 1.117-0.558 2.233-1.117 2.791-2.792 0.558-1.675 1.117-2.792 1.675-4.466 0-1.117 0.558-2.233 1.117-3.35 0.558 0 1.117 0 2.233-0.558-0.558-0.558-1.117-0.558-1.117-1.117 0-0.558 0.558-1.117 0.559-1.117 0-0.558 0.558-1.117 0.558-1.675 0 0 0.558 0 0.558-0.558 0 0 0.558 0 0.559-0.558-1.117 0.558-1.675 0-2.234-0.559 0.558 0.558 1.117 0.558 2.234 1.117 0 0 0.558 0 0.558-0.558 0-0.558 0-1.117 0-1.117 0 0-0.558 0-1.117 0-0.558 0-1.117 0.558-1.675 0.558zM182.097 295.292c0-0.558-0.558-0.558-0.559-1.117-0.558-1.117 0-1.675 0.559-2.233 0.558-0.558 1.117-0.558 2.233-0.558 1.117 0.558 1.675 1.117 1.675 2.233 0 0.558 0 1.675 0 2.233 0.558 2.233 0.558 2.233 2.791 2.233 1.117 0 2.233 0 3.35 0 2.233-0.558 4.467-1.675 6.7-2.233 2.233-0.558 4.467-1.117 6.7-1.675 0.558 0 1.117 0 2.233 0 2.233 0.558 3.908 0 5.583-1.117 0.558-0.558 1.675-0.558 2.233-1.116 1.117-0.558 2.233-0.558 3.35-1.117 2.792-1.675 5.583-2.792 7.817-4.466 1.675-1.117 3.35-2.233 5.024-3.35 1.675-1.117 3.35-2.233 5.025-3.35 1.117-0.558 2.792-1.675 3.908-2.792 2.233-1.675 3.908-3.35 6.142-4.466 1.117-0.558 1.675-1.117 2.233-1.675 1.117-0.558 1.675-1.675 2.792-2.233 0.558-0.558 1.117-1.117 2.233-1.675 0.558-0.558 0.558-0.558 0.558-1.117 1.675-1.117 3.35-3.35 4.467-5.025 1.117-1.117 2.233-2.233 3.35-3.908 1.675-1.675 2.792-3.908 4.466-6.141 1.117-1.117 2.233-2.792 2.792-3.909 1.117-2.233 2.233-4.467 3.908-6.141v-0.558c1.117-2.233 2.233-4.467 3.35-6.7 1.675-2.792 2.792-6.141 4.466-8.933 0.558-1.117 1.117-2.233 1.117-3.35 1.117-2.233 1.675-4.467 2.233-6.7 0-0.558 0-0.558 0.559-1.116 1.675-3.35 2.792-6.7 3.349-10.608 0.558-2.233 1.117-4.467 1.675-6.7 1.117-3.35 1.117-6.141 1.675-9.491 0.558-2.233 0.558-5.025 0.559-7.258 0.558-3.35 0.558-7.258 0-10.608 0-2.792-0.558-6.141-0.559-8.933 0-2.792-0.558-5.025-1.116-7.817-0.558-2.792-1.117-5.025-1.675-7.816-1.117-2.233-1.675-4.467-2.234-7.258-0.558-2.233-1.675-3.908-1.674-6.142 0-1.675-0.558-3.35-2.234-3.908-1.675-0.558-2.792-1.117-4.466-2.233-3.35-2.233-5.025-5.025-4.467-8.375 0-1.675 0.558-3.908 1.117-5.583 0.558-1.675 1.117-3.35 0-4.467-0.558-1.675-1.675-2.792-2.233-3.908-1.117-1.675-1.675-2.792-2.792-3.908-1.117-2.233-2.233-4.467-3.908-6.141-2.233-2.792-3.908-5.583-6.7-7.817l-0.558-0.558c-1.675-2.233-3.35-4.467-5.583-6.142-1.117-1.117-2.233-2.233-3.35-2.791-0.558-0.558-1.117-1.117-2.233-1.675-1.675-1.117-3.35-1.675-4.467-2.792-1.675-1.675-3.908-2.792-5.583-3.908 0 0-0.558 0-0.558-0.558-2.233-1.117-3.908-1.675-6.142-2.792-2.233-1.117-4.467-1.675-6.7-1.675-0.558 0-0.558 0-1.116 0-0.558-0.558-1.675-0.558-2.233-0.558-0.558 0-0.558 0-1.117 0-1.117-0.558-2.792 0-3.908 0-2.233 0.558-4.467 0.558-6.7-0.558-2.792-1.117-5.025-2.233-7.258-3.35-1.675-1.117-2.792-2.233-4.467-3.35-3.35-2.792-6.7-6.141-10.608-8.933 0.558-2.792-0.558-3.35-2.791-3.35-1.117 0-2.233 0.558-3.35 1.117-0.558 0.558-0.558 0.558-1.117 1.116-1.675 1.117-2.792 2.792-4.466 3.909-2.792 1.675-3.908 1.117-6.142 0-0.558-0.558-1.117-1.117-1.675-1.675-1.117-1.117-2.233-2.792-2.791-3.909-1.117-2.233-3.35-2.233-5.583-2.233-1.117 0-2.792 0.558-3.908 0.558-2.233 0-4.467 1.117-5.584 2.792-1.117 1.675-2.233 3.35-3.908 5.025-0.558 0.558-1.675 1.117-2.233 2.233-1.117 1.117-2.233 1.117-3.35 0-0.558-0.558-1.117-0.558-1.675-1.117-0.558 0.558-1.117 1.117-1.117 1.675-0.558 1.117-1.117 2.233-1.674 3.909-0.558 1.675-1.675 3.35-2.792 4.466-0.558 0.558-0.558 0.558-1.117 1.117-0.558 1.117-2.233 1.675-3.35 1.675-1.117 1.117-2.233 2.792-2.791 3.908-0.558 1.117-1.117 2.233-1.675 3.908-0.558 0.558-0.558 1.675-1.117 2.233-0.558 1.117-0.558 1.675-0.558 2.792 0.558 1.675-0.558 2.233-2.233 2.791-1.117 0-1.117 0-1.675 1.117 0 1.675 0.558 2.792 1.116 4.467 0.558 0.558 1.117 1.675 1.117 2.233 0 1.117 0.558 1.675 1.675 2.233 0.558 0.558 1.117 1.117 1.675 1.117 0.558 0 0.558 0.558 1.117 0.558 0.558 0.558 1.117 0 1.116-0.558 0.558-1.675 1.117-3.35 1.117-5.025 0.558-2.233 0.558-3.908 1.116-6.142 0.558-1.117 1.117-1.675 1.675-2.233 0 0 0.558 0 1.117 0v0.559c-0.558 2.792-1.675 6.141-2.233 8.933-0.558 1.117-0.558 2.233-1.117 3.349 0 0.558-0.558 1.117-1.116 1.117-1.117 0.558-2.233 1.117-3.35 1.117-0.558 0-1.117 0-1.675 0-1.117-0.558-2.233-1.675-3.35-2.234-0.558-0.558-1.117-1.117-1.675-1.674-0.558-1.117-1.117-2.233-1.675-3.35-0.558-1.117-1.117-1.675-2.233-2.234-0.558-0.558-1.117-0.558-1.675-1.116-1.117-1.117-2.233-1.675-3.908-1.675-0.558 0-1.675 0-2.234 0-0.558 0-1.675 0.558-2.233 1.116-1.117 0.558-1.675 0.558-2.791 0-2.792-1.117-5.583-0.558-8.375 0.559-1.117 0.558-2.233 1.117-3.35 1.116-2.792 0-5.025 0-7.816 0-2.792 0-5.025-0.558-7.817-1.116-1.117 0-2.233 0-3.35 0-2.233 0.558-2.792 2.233-2.233 4.466 0.558 2.233 1.117 5.025 1.117 7.258 0 1.675 0 3.35 0 5.025 0 1.117 0 1.675 0 2.792 0 1.675-0.558 3.35-0.559 5.025-0.558 3.35-2.233 6.141-4.466 8.374-1.675 1.675-3.908 3.35-6.142 3.908-1.117 0.558-2.233 1.117-3.908 1.675-2.792 1.117-5.025 3.35-6.7 6.142-0.558 1.117-1.117 2.233-1.674 3.35-1.117 1.675-1.675 2.792-2.792 4.466-0.558 1.117-1.675 2.233-2.233 3.35-0.558 1.117-1.675 1.675-1.675 2.792-1.117 2.233-1.675 4.467-2.792 6.699-0.558 1.117-0.558 2.792-1.116 3.909-1.117 2.233-1.117 4.467-1.117 7.258 0 0.558 0 1.117 0 2.233 0 2.792-0.558 6.141-0.558 8.933 0 2.792 0 5.583 0.558 8.375 0 1.117 0 2.792 0 3.908 0 2.233 0.558 5.025 0.558 7.258 0 2.233 0 5.025 1.117 7.258v0.558c0.558 2.233 0.558 4.467 1.116 6.7 0 0.558 0 1.117 0.559 1.675 1.117 3.35 1.675 6.141 2.791 9.491 0.558 2.233 1.675 4.467 2.234 6.7 0.558 2.233 2.792 4.467 3.349 7.258v0c1.675 3.35 3.35 6.7 5.584 10.05 0.558 1.117 1.675 2.233 2.233 3.35 1.117 1.675 1.675 3.35 2.791 4.466 0.558 1.117 1.675 2.233 2.234 2.792 0.558 1.117 1.117 2.233 2.233 3.35 1.117 1.117 2.233 2.792 3.35 3.908 1.675 2.792 3.908 5.025 6.141 6.7 1.117 1.117 2.233 1.675 3.35 2.791 0.558 0.558 1.117 0.558 1.117 1.117 0.558 0.558 1.117 1.117 2.233 1.675 4.467 2.233 7.816 5.583 11.725 8.933 1.675 1.675 3.35 3.35 5.583 4.466 2.233 1.675 3.908 3.35 6.7 3.908 0 0 0.558 0 0.558 0.559 1.117 1.117 2.792 1.675 3.908 2.233 2.233 1.117 5.025 2.233 7.258 3.35 0.558 0.558 1.675 0.558 2.233 1.117 1.675 0.558 3.35 1.117 5.025 1.674 1.675 0.558 2.792 1.117 4.467 1.117h0.558c1.117 0.558 1.675 0.558 2.792 0 0.558 0 1.117 0 1.116 0.558 0 0.558 0.558 0.558 1.117 0.559 0.558 0 1.117 0 2.233 0 0.558-0.558 0.558-1.117 1.117-2.234 0.558 0.558 1.117 0.558 1.116 0.559 0.558 1.117 1.675 1.117 2.792 1.116h0.558c1.117 0 1.675 0 2.233-0.558 0-0.558 1.117-0.558 1.675-0.558 1.675 0.558 3.35 0.558 5.025 1.116 1.117 0.558 2.792 0.558 3.35-0.558 0.558-0.558 1.117-1.117 2.233-0.558 1.117 0.558 1.675 0.558 2.792 0 0.558 0 1.117 0 1.117 0 1.675 0.558 2.792 0.558 4.466 1.116 2.233 0.558 2.233 0.558 3.908-1.116 0.558-0.558 1.675-0.558 2.233 0 0.558 1.117 0.558 1.675 0.559 2.791 0.558 0 0.558 0 1.116-0.558 0-1.117 0.558-1.117 1.675-1.675 0.558 0.558 0.558 0.558 1.117 0.558 1.117 1.117 1.675 1.117 2.233-0.558 0-0.558 0-1.117 0.559-1.116 0.558 0 1.117 0.558 1.116 0.558 0.558 1.117 1.675 1.675 2.233 2.791 1.117 1.117 2.792 1.117 3.35 0 0.558-0.558 1.117-0.558 1.675-0.558 0-0.558 0-1.117 0-1.675 1.675 1.117 1.117 1.117 0.559 1.117zM89.417 34.559c1.675 0.558 2.792 0.558 3.349-0.558-1.117 0.558-2.233-0.558-3.349 0.558z" fill="#ff4057" fill-rule="nonzero" stroke="none" stroke-width="1" stroke-linecap="butt" stroke-linejoin="miter" stroke-miterlimit="10" stroke-dasharray="" stroke-dashoffset="0" font-family="none" font-weight="none" font-size="none" text-anchor="none" style="mix-blend-mode: normal" data-fill-palette-color="tertiary"></path></g><g transform="matrix(1,0,0,1,64,145.1634818612224)"><svg viewBox="0 0 192 69.67303627755516" height="69.67303627755516" width="192"><g><svg viewBox="0 0 192 69.67303627755516" height="69.67303627755516" width="192"><g><svg viewBox="0 0 326.4154592113879 118.44977151661381" height="69.67303627755516" width="192"><g transform="matrix(1,0,0,1,134.4154592113879,11.448067630909186)"><svg viewBox="0 0 192 95.55363625479544" height="95.55363625479544" width="192"><g><svg viewBox="0 0 192 95.55363625479544" height="95.55363625479544" width="192"><g><svg viewBox="0 0 192 66.755871886121" height="66.755871886121" width="192"><g transform="matrix(1,0,0,1,0,0)"><svg width="192" viewBox="3.25 -37.70000076293945 137.19000244140625 47.709999084472656" height="66.755871886121" data-palette-color="#ff4057"><path d="M10.25-13.99L10.25 0 3.25 0 3.25-35.01 27.76-35.01 27.76-28 10.25-28 10.25-21 20.75-21 20.75-13.99 10.25-13.99ZM35.5-14.4L35.5 0 28.83 0 28.83-26.15 30.44-26.15 32.64-23.05Q34.25-24.51 36.3-25.31 38.35-26.1 40.55-26.1L40.55-26.1 46.43-26.1 46.43-19.46 40.55-19.46Q39.5-19.46 38.57-19.07 37.64-18.68 36.96-17.99 36.28-17.31 35.89-16.38 35.5-15.45 35.5-14.4L35.5-14.4ZM57.39-33.25L57.39-33.25Q57.39-32.32 57.04-31.52 56.68-30.71 56.07-30.11 55.46-29.52 54.65-29.16 53.83-28.81 52.9-28.81L52.9-28.81Q51.97-28.81 51.15-29.16 50.34-29.52 49.74-30.11 49.14-30.71 48.79-31.52 48.43-32.32 48.43-33.25L48.43-33.25Q48.43-34.16 48.79-34.97 49.14-35.79 49.74-36.39 50.34-36.99 51.15-37.34 51.97-37.7 52.9-37.7L52.9-37.7Q53.83-37.7 54.65-37.34 55.46-36.99 56.07-36.39 56.68-35.79 57.04-34.97 57.39-34.16 57.39-33.25ZM56.25-26.15L56.25 0 49.53 0 49.53-26.15 56.25-26.15ZM75.68 0L75.68 0 60.44 0 60.44-6.64 75.68-6.64Q76.36-6.64 76.85-7.13 77.34-7.62 77.34-8.3L77.34-8.3Q77.34-9.01 76.85-9.23 76.36-9.45 75.68-9.45L75.68-9.45 68.74-9.45Q67.01-9.45 65.5-10.11 63.98-10.77 62.86-11.9 61.74-13.04 61.09-14.55 60.44-16.06 60.44-17.8L60.44-17.8Q60.44-19.53 61.09-21.04 61.74-22.56 62.86-23.68 63.98-24.8 65.5-25.45 67.01-26.1 68.74-26.1L68.74-26.1 82.24-26.1 82.24-19.46 68.74-19.46Q68.06-19.46 67.57-18.97 67.08-18.48 67.08-17.8L67.08-17.8Q67.08-17.09 67.57-16.59 68.06-16.09 68.74-16.09L68.74-16.09 75.68-16.09Q77.39-16.09 78.9-15.52 80.41-14.94 81.54-13.92 82.66-12.89 83.32-11.45 83.98-10.01 83.98-8.3L83.98-8.3Q83.98-6.57 83.32-5.07 82.66-3.56 81.54-2.43 80.41-1.29 78.9-0.65 77.39 0 75.68 0ZM113.69-13.31L113.69-13.31Q113.69-10.23 112.64-7.69 111.59-5.15 109.78-3.33 107.97-1.51 105.54-0.51 103.12 0.49 100.33 0.49L100.33 0.49Q97.57 0.49 95.14-0.54 92.71-1.56 90.9-3.39 89.08-5.22 88.03-7.75 86.98-10.28 86.98-13.31L86.98-13.31 86.98-36.55 93.67-36.55 93.67-24.34Q94.2-25.02 94.97-25.56 95.74-26.1 96.63-26.44 97.52-26.78 98.48-26.97 99.43-27.15 100.33-27.15L100.33-27.15Q103.12-27.15 105.54-26.11 107.97-25.07 109.78-23.22 111.59-21.36 112.64-18.84 113.69-16.31 113.69-13.31ZM106.97-13.31L106.97-13.31Q106.97-14.82 106.45-16.13 105.92-17.43 105.02-18.38 104.12-19.34 102.91-19.87 101.7-20.41 100.33-20.41L100.33-20.41Q98.96-20.41 97.76-19.81 96.55-19.21 95.64-18.23 94.74-17.24 94.23-15.95 93.72-14.67 93.72-13.31L93.72-13.31Q93.72-11.79 94.23-10.5 94.74-9.2 95.64-8.25 96.55-7.3 97.76-6.75 98.96-6.2 100.33-6.2L100.33-6.2Q101.7-6.2 102.91-6.75 104.12-7.3 105.02-8.25 105.92-9.2 106.45-10.5 106.97-11.79 106.97-13.31ZM127.09 10.01L123.67 9.96 123.67 3.25 127.38 3.3Q128.36 3.3 129.26 2.98 130.16 2.66 130.93 2.1 131.7 1.54 132.29 0.77 132.87 0 133.24-0.9L133.24-0.9Q132.14-0.44 131.01 0.02 129.87 0.49 128.72 0.49L128.72 0.49Q126.31 0.49 124.18-0.37 122.06-1.22 120.46-2.8 118.86-4.37 117.94-6.63 117.03-8.89 117.03-11.69L117.03-11.69 117.03-26.15 123.67-26.15 123.67-11.69Q123.67-10.3 124.07-9.27 124.47-8.23 125.16-7.53 125.84-6.84 126.76-6.49 127.67-6.15 128.72-6.15L128.72-6.15Q129.75-6.15 130.66-6.63 131.58-7.1 132.26-7.89 132.95-8.67 133.34-9.66 133.73-10.64 133.73-11.69L133.73-11.69 133.73-26.15 140.44-26.15 140.44-3.3Q140.42-0.54 139.37 1.88 138.32 4.3 136.5 6.1 134.68 7.91 132.26 8.96 129.85 10.01 127.09 10.01L127.09 10.01Z" opacity="1" transform="matrix(1,0,0,1,0,0)" fill="#ff4057" class="undefined-text-0" data-fill-palette-color="primary" id="text-0"></path></svg></g></svg></g><g transform="matrix(1,0,0,1,0,82.5153310975089)"><svg viewBox="0 0 192 13.038305157286539" height="13.038305157286539" width="192"><g transform="matrix(1,0,0,1,0,0)"><svg width="192" viewBox="4.650000095367432 -37 700.8699951171875 47.599998474121094" height="13.038305157286539" data-palette-color="#dcdcdc"><path d="M25.95 0L4.65 0 4.65-34.9 25.95-34.9 25.95-31.2 8.85-31.2 8.85-19.5 24.95-19.5 24.95-15.8 8.85-15.8 8.85-3.7 25.95-3.7 25.95 0ZM37.4 0L33.4 0 33.4-25.8 37.4-25.8 37.4-21.6 37.6-21.6Q38.55-23.8 40.27-25.1 42-26.4 44.9-26.4L44.9-26.4Q48.9-26.4 51.22-23.83 53.55-21.25 53.55-16.55L53.55-16.55 53.55 0 49.55 0 49.55-15.85Q49.55-22.8 43.7-22.8L43.7-22.8Q42.5-22.8 41.37-22.5 40.25-22.2 39.35-21.6 38.45-21 37.92-20.08 37.4-19.15 37.4-17.9L37.4-17.9 37.4 0ZM83.55 2.85L83.55 2.85Q83.55 6.85 80.42 8.72 77.3 10.6 71.05 10.6L71.05 10.6Q65 10.6 62.34 8.95 59.7 7.3 59.7 4.25L59.7 4.25Q59.7 2.15 60.8 0.98 61.9-0.2 63.8-0.75L63.8-0.75 63.8-1.3Q61.5-2.4 61.5-4.9L61.5-4.9Q61.5-6.85 62.75-7.88 64-8.9 65.95-9.4L65.95-9.4 65.95-9.6Q63.65-10.7 62.37-12.75 61.09-14.8 61.09-17.5L61.09-17.5Q61.09-19.45 61.8-21.1 62.5-22.75 63.77-23.93 65.05-25.1 66.82-25.75 68.59-26.4 70.8-26.4L70.8-26.4Q73.55-26.4 75.7-25.4L75.7-25.4 75.7-25.85Q75.7-27.35 76.4-28.33 77.09-29.3 78.7-29.3L78.7-29.3 82.55-29.3 82.55-25.8 77.65-25.8 77.65-24.15Q79.05-22.95 79.82-21.28 80.59-19.6 80.59-17.5L80.59-17.5Q80.59-15.55 79.9-13.9 79.2-12.25 77.92-11.08 76.65-9.9 74.84-9.25 73.05-8.6 70.84-8.6L70.84-8.6Q69.59-8.6 68.34-8.85L68.34-8.85Q67.05-8.5 66-7.83 64.95-7.15 64.95-5.95L64.95-5.95Q64.95-4.8 66.05-4.4 67.15-4 68.9-4L68.9-4 74.4-4Q79.2-4 81.37-2.18 83.55-0.35 83.55 2.85ZM79.8 3.15L79.8 3.15Q79.8 1.6 78.62 0.68 77.45-0.25 74.45-0.25L74.45-0.25 65.84-0.25Q63.45 0.85 63.45 3.25L63.45 3.25Q63.45 4.95 64.72 6.15 66 7.35 69.05 7.35L69.05 7.35 72.75 7.35Q76.09 7.35 77.95 6.3 79.8 5.25 79.8 3.15ZM70.84-11.8L70.84-11.8Q73.4-11.8 74.9-13.03 76.4-14.25 76.4-16.8L76.4-16.8 76.4-18.2Q76.4-20.75 74.9-21.98 73.4-23.2 70.84-23.2L70.84-23.2Q68.3-23.2 66.8-21.98 65.3-20.75 65.3-18.2L65.3-18.2 65.3-16.8Q65.3-14.25 66.8-13.03 68.3-11.8 70.84-11.8ZM90.19-31.85L90.19-31.85Q88.89-31.85 88.32-32.48 87.74-33.1 87.74-34.1L87.74-34.1 87.74-34.75Q87.74-35.75 88.32-36.38 88.89-37 90.19-37L90.19-37Q91.49-37 92.07-36.38 92.64-35.75 92.64-34.75L92.64-34.75 92.64-34.1Q92.64-33.1 92.07-32.48 91.49-31.85 90.19-31.85ZM88.19 0L88.19-25.8 92.19-25.8 92.19 0 88.19 0ZM104.69 0L100.69 0 100.69-25.8 104.69-25.8 104.69-21.6 104.89-21.6Q105.84-23.8 107.57-25.1 109.29-26.4 112.19-26.4L112.19-26.4Q116.19-26.4 118.52-23.83 120.84-21.25 120.84-16.55L120.84-16.55 120.84 0 116.84 0 116.84-15.85Q116.84-22.8 110.99-22.8L110.99-22.8Q109.79-22.8 108.67-22.5 107.54-22.2 106.64-21.6 105.74-21 105.22-20.08 104.69-19.15 104.69-17.9L104.69-17.9 104.69 0ZM138.79 0.6L138.79 0.6Q136.14 0.6 134.01-0.35 131.89-1.3 130.36-3.08 128.84-4.85 128.01-7.33 127.19-9.8 127.19-12.9L127.19-12.9Q127.19-15.95 128.01-18.45 128.84-20.95 130.36-22.73 131.89-24.5 134.01-25.45 136.14-26.4 138.79-26.4L138.79-26.4Q141.39-26.4 143.44-25.45 145.49-24.5 146.94-22.83 148.39-21.15 149.16-18.85 149.94-16.55 149.94-13.8L149.94-13.8 149.94-11.9 131.39-11.9 131.39-10.7Q131.39-9.05 131.91-7.63 132.44-6.2 133.41-5.15 134.39-4.1 135.81-3.5 137.24-2.9 139.04-2.9L139.04-2.9Q141.49-2.9 143.31-4.05 145.14-5.2 146.14-7.35L146.14-7.35 148.99-5.3Q147.74-2.65 145.09-1.03 142.44 0.6 138.79 0.6ZM138.79-23.05L138.79-23.05Q137.14-23.05 135.79-22.48 134.44-21.9 133.46-20.85 132.49-19.8 131.94-18.38 131.39-16.95 131.39-15.25L131.39-15.25 131.39-14.9 145.64-14.9 145.64-15.45Q145.64-18.9 143.76-20.98 141.89-23.05 138.79-23.05ZM166.24 0.6L166.24 0.6Q163.59 0.6 161.46-0.35 159.34-1.3 157.81-3.08 156.29-4.85 155.46-7.33 154.64-9.8 154.64-12.9L154.64-12.9Q154.64-15.95 155.46-18.45 156.29-20.95 157.81-22.73 159.34-24.5 161.46-25.45 163.59-26.4 166.24-26.4L166.24-26.4Q168.84-26.4 170.89-25.45 172.94-24.5 174.39-22.83 175.84-21.15 176.61-18.85 177.39-16.55 177.39-13.8L177.39-13.8 177.39-11.9 158.84-11.9 158.84-10.7Q158.84-9.05 159.36-7.63 159.89-6.2 160.86-5.15 161.84-4.1 163.26-3.5 164.69-2.9 166.49-2.9L166.49-2.9Q168.94-2.9 170.76-4.05 172.59-5.2 173.59-7.35L173.59-7.35 176.44-5.3Q175.19-2.65 172.54-1.03 169.89 0.6 166.24 0.6ZM166.24-23.05L166.24-23.05Q164.59-23.05 163.24-22.48 161.89-21.9 160.91-20.85 159.94-19.8 159.39-18.38 158.84-16.95 158.84-15.25L158.84-15.25 158.84-14.9 173.09-14.9 173.09-15.45Q173.09-18.9 171.21-20.98 169.34-23.05 166.24-23.05ZM187.98 0L183.98 0 183.98-25.8 187.98-25.8 187.98-21.05 188.23-21.05Q188.93-22.9 190.73-24.35 192.53-25.8 195.68-25.8L195.68-25.8 197.23-25.8 197.23-21.8 194.88-21.8Q191.63-21.8 189.81-20.58 187.98-19.35 187.98-17.5L187.98-17.5 187.98 0ZM200.88-5.85L200.88-5.85Q202.48-5.85 203.21-5.03 203.93-4.2 203.93-2.9L203.93-2.9 203.93-2.2Q203.93-0.15 202.73 2.33 201.53 4.8 199.38 6.65L199.38 6.65 196.03 6.65Q197.53 5.05 198.46 3.63 199.38 2.2 199.78 0.45L199.78 0.45Q198.78 0.2 198.31-0.5 197.83-1.2 197.83-2.2L197.83-2.2 197.83-2.9Q197.83-4.2 198.56-5.03 199.28-5.85 200.88-5.85ZM224.13 0L224.13-34.9 235.83-34.9Q239.08-34.9 241.73-33.8 244.38-32.7 246.25-30.53 248.13-28.35 249.13-25.08 250.13-21.8 250.13-17.45L250.13-17.45Q250.13-13.1 249.13-9.83 248.13-6.55 246.25-4.38 244.38-2.2 241.73-1.1 239.08 0 235.83 0L235.83 0 224.13 0ZM228.33-3.7L235.83-3.7Q237.98-3.7 239.78-4.42 241.58-5.15 242.88-6.55 244.18-7.95 244.9-9.98 245.63-12 245.63-14.6L245.63-14.6 245.63-20.3Q245.63-22.9 244.9-24.93 244.18-26.95 242.88-28.35 241.58-29.75 239.78-30.48 237.98-31.2 235.83-31.2L235.83-31.2 228.33-31.2 228.33-3.7ZM266.97 0.6L266.97 0.6Q264.32 0.6 262.2-0.35 260.07-1.3 258.55-3.08 257.02-4.85 256.2-7.33 255.37-9.8 255.37-12.9L255.37-12.9Q255.37-15.95 256.2-18.45 257.02-20.95 258.55-22.73 260.07-24.5 262.2-25.45 264.32-26.4 266.97-26.4L266.97-26.4Q269.57-26.4 271.62-25.45 273.67-24.5 275.12-22.83 276.57-21.15 277.35-18.85 278.12-16.55 278.12-13.8L278.12-13.8 278.12-11.9 259.57-11.9 259.57-10.7Q259.57-9.05 260.1-7.63 260.62-6.2 261.6-5.15 262.57-4.1 264-3.5 265.42-2.9 267.22-2.9L267.22-2.9Q269.67-2.9 271.5-4.05 273.32-5.2 274.32-7.35L274.32-7.35 277.17-5.3Q275.92-2.65 273.27-1.03 270.62 0.6 266.97 0.6ZM266.97-23.05L266.97-23.05Q265.32-23.05 263.97-22.48 262.62-21.9 261.65-20.85 260.67-19.8 260.12-18.38 259.57-16.95 259.57-15.25L259.57-15.25 259.57-14.9 273.82-14.9 273.82-15.45Q273.82-18.9 271.95-20.98 270.07-23.05 266.97-23.05ZM294.67 0L290.02 0 280.97-25.8 284.97-25.8 289.47-13 292.27-4.2 292.52-4.2 295.32-13 299.92-25.8 303.77-25.8 294.67 0ZM318.22 0.6L318.22 0.6Q315.57 0.6 313.44-0.35 311.32-1.3 309.79-3.08 308.27-4.85 307.44-7.33 306.62-9.8 306.62-12.9L306.62-12.9Q306.62-15.95 307.44-18.45 308.27-20.95 309.79-22.73 311.32-24.5 313.44-25.45 315.57-26.4 318.22-26.4L318.22-26.4Q320.82-26.4 322.87-25.45 324.92-24.5 326.37-22.83 327.82-21.15 328.59-18.85 329.37-16.55 329.37-13.8L329.37-13.8 329.37-11.9 310.82-11.9 310.82-10.7Q310.82-9.05 311.34-7.63 311.87-6.2 312.84-5.15 313.82-4.1 315.24-3.5 316.67-2.9 318.47-2.9L318.47-2.9Q320.92-2.9 322.74-4.05 324.57-5.2 325.57-7.35L325.57-7.35 328.42-5.3Q327.17-2.65 324.52-1.03 321.87 0.6 318.22 0.6ZM318.22-23.05L318.22-23.05Q316.57-23.05 315.22-22.48 313.87-21.9 312.89-20.85 311.92-19.8 311.37-18.38 310.82-16.95 310.82-15.25L310.82-15.25 310.82-14.9 325.07-14.9 325.07-15.45Q325.07-18.9 323.19-20.98 321.32-23.05 318.22-23.05ZM343.77 0L340.22 0Q338.12 0 337.04-1.18 335.97-2.35 335.97-4.15L335.97-4.15 335.97-37 339.97-37 339.97-3.5 343.77-3.5 343.77 0ZM359.31 0.6L359.31 0.6Q356.71 0.6 354.56-0.35 352.41-1.3 350.89-3.08 349.36-4.85 348.51-7.33 347.66-9.8 347.66-12.9L347.66-12.9Q347.66-15.95 348.51-18.45 349.36-20.95 350.89-22.73 352.41-24.5 354.56-25.45 356.71-26.4 359.31-26.4L359.31-26.4Q361.91-26.4 364.04-25.45 366.16-24.5 367.71-22.73 369.26-20.95 370.11-18.45 370.96-15.95 370.96-12.9L370.96-12.9Q370.96-9.8 370.11-7.33 369.26-4.85 367.71-3.08 366.16-1.3 364.04-0.35 361.91 0.6 359.31 0.6ZM359.31-2.95L359.31-2.95Q362.56-2.95 364.61-4.95 366.66-6.95 366.66-11.05L366.66-11.05 366.66-14.75Q366.66-18.85 364.61-20.85 362.56-22.85 359.31-22.85L359.31-22.85Q356.06-22.85 354.01-20.85 351.96-18.85 351.96-14.75L351.96-14.75 351.96-11.05Q351.96-6.95 354.01-4.95 356.06-2.95 359.31-2.95ZM377.56 10L377.56-25.8 381.56-25.8 381.56-21.6 381.76-21.6Q382.76-24.05 384.69-25.23 386.61-26.4 389.31-26.4L389.31-26.4Q391.71-26.4 393.66-25.45 395.61-24.5 396.99-22.75 398.36-21 399.09-18.5 399.81-16 399.81-12.9L399.81-12.9Q399.81-9.8 399.09-7.3 398.36-4.8 396.99-3.05 395.61-1.3 393.66-0.35 391.71 0.6 389.31 0.6L389.31 0.6Q384.06 0.6 381.76-4.2L381.76-4.2 381.56-4.2 381.56 10 377.56 10ZM388.21-3L388.21-3Q391.61-3 393.56-5.13 395.51-7.25 395.51-10.7L395.51-10.7 395.51-15.1Q395.51-18.55 393.56-20.68 391.61-22.8 388.21-22.8L388.21-22.8Q386.86-22.8 385.64-22.43 384.41-22.05 383.51-21.4 382.61-20.75 382.09-19.83 381.56-18.9 381.56-17.85L381.56-17.85 381.56-8.25Q381.56-7 382.09-6.03 382.61-5.05 383.51-4.38 384.41-3.7 385.64-3.35 386.86-3 388.21-3ZM416.26 0.6L416.26 0.6Q413.61 0.6 411.48-0.35 409.36-1.3 407.83-3.08 406.31-4.85 405.48-7.33 404.66-9.8 404.66-12.9L404.66-12.9Q404.66-15.95 405.48-18.45 406.31-20.95 407.83-22.73 409.36-24.5 411.48-25.45 413.61-26.4 416.26-26.4L416.26-26.4Q418.86-26.4 420.91-25.45 422.96-24.5 424.41-22.83 425.86-21.15 426.63-18.85 427.41-16.55 427.41-13.8L427.41-13.8 427.41-11.9 408.86-11.9 408.86-10.7Q408.86-9.05 409.38-7.63 409.91-6.2 410.88-5.15 411.86-4.1 413.28-3.5 414.71-2.9 416.51-2.9L416.51-2.9Q418.96-2.9 420.78-4.05 422.61-5.2 423.61-7.35L423.61-7.35 426.46-5.3Q425.21-2.65 422.56-1.03 419.91 0.6 416.26 0.6ZM416.26-23.05L416.26-23.05Q414.61-23.05 413.26-22.48 411.91-21.9 410.93-20.85 409.96-19.8 409.41-18.38 408.86-16.95 408.86-15.25L408.86-15.25 408.86-14.9 423.11-14.9 423.11-15.45Q423.11-18.9 421.23-20.98 419.36-23.05 416.26-23.05ZM438.01 0L434.01 0 434.01-25.8 438.01-25.8 438.01-21.05 438.26-21.05Q438.96-22.9 440.76-24.35 442.56-25.8 445.71-25.8L445.71-25.8 447.26-25.8 447.26-21.8 444.91-21.8Q441.66-21.8 439.83-20.58 438.01-19.35 438.01-17.5L438.01-17.5 438.01 0ZM450.9-5.85L450.9-5.85Q452.5-5.85 453.23-5.03 453.95-4.2 453.95-2.9L453.95-2.9 453.95-2.2Q453.95-0.15 452.75 2.33 451.55 4.8 449.4 6.65L449.4 6.65 446.05 6.65Q447.55 5.05 448.48 3.63 449.4 2.2 449.8 0.45L449.8 0.45Q448.8 0.2 448.33-0.5 447.85-1.2 447.85-2.2L447.85-2.2 447.85-2.9Q447.85-4.2 448.58-5.03 449.3-5.85 450.9-5.85ZM478.35 0L474.15 0 474.15-34.9 488.05-34.9Q492.75-34.9 495.27-32.23 497.8-29.55 497.8-24.9L497.8-24.9Q497.8-20.25 495.27-17.57 492.75-14.9 488.05-14.9L488.05-14.9 478.35-14.9 478.35 0ZM478.35-31.2L478.35-18.6 488.05-18.6Q490.55-18.6 491.92-19.9 493.3-21.2 493.3-23.6L493.3-23.6 493.3-26.2Q493.3-28.6 491.92-29.9 490.55-31.2 488.05-31.2L488.05-31.2 478.35-31.2ZM512.75 0.6L512.75 0.6Q510.1 0.6 507.97-0.35 505.85-1.3 504.32-3.08 502.8-4.85 501.97-7.33 501.15-9.8 501.15-12.9L501.15-12.9Q501.15-15.95 501.97-18.45 502.8-20.95 504.32-22.73 505.85-24.5 507.97-25.45 510.1-26.4 512.75-26.4L512.75-26.4Q515.35-26.4 517.4-25.45 519.45-24.5 520.9-22.83 522.35-21.15 523.12-18.85 523.9-16.55 523.9-13.8L523.9-13.8 523.9-11.9 505.35-11.9 505.35-10.7Q505.35-9.05 505.87-7.63 506.4-6.2 507.37-5.15 508.35-4.1 509.77-3.5 511.2-2.9 513-2.9L513-2.9Q515.45-2.9 517.27-4.05 519.1-5.2 520.1-7.35L520.1-7.35 522.95-5.3Q521.7-2.65 519.05-1.03 516.4 0.6 512.75 0.6ZM512.75-23.05L512.75-23.05Q511.1-23.05 509.75-22.48 508.4-21.9 507.42-20.85 506.45-19.8 505.9-18.38 505.35-16.95 505.35-15.25L505.35-15.25 505.35-14.9 519.6-14.9 519.6-15.45Q519.6-18.9 517.72-20.98 515.85-23.05 512.75-23.05ZM534.49 0L530.49 0 530.49-25.8 534.49-25.8 534.49-21.6 534.69-21.6Q535.64-23.8 537.37-25.1 539.09-26.4 541.99-26.4L541.99-26.4Q545.99-26.4 548.32-23.83 550.64-21.25 550.64-16.55L550.64-16.55 550.64 0 546.64 0 546.64-15.85Q546.64-22.8 540.79-22.8L540.79-22.8Q539.59-22.8 538.47-22.5 537.34-22.2 536.44-21.6 535.54-21 535.02-20.08 534.49-19.15 534.49-17.9L534.49-17.9 534.49 0ZM593.94-31.2L582.84-31.2 582.84 0 578.64 0 578.64-31.2 567.54-31.2 567.54-34.9 593.94-34.9 593.94-31.2ZM605.74 0.6L605.74 0.6Q603.08 0.6 600.96-0.35 598.83-1.3 597.31-3.08 595.78-4.85 594.96-7.33 594.13-9.8 594.13-12.9L594.13-12.9Q594.13-15.95 594.96-18.45 595.78-20.95 597.31-22.73 598.83-24.5 600.96-25.45 603.08-26.4 605.74-26.4L605.74-26.4Q608.33-26.4 610.38-25.45 612.43-24.5 613.88-22.83 615.33-21.15 616.11-18.85 616.88-16.55 616.88-13.8L616.88-13.8 616.88-11.9 598.33-11.9 598.33-10.7Q598.33-9.05 598.86-7.63 599.38-6.2 600.36-5.15 601.33-4.1 602.76-3.5 604.18-2.9 605.99-2.9L605.99-2.9Q608.43-2.9 610.26-4.05 612.08-5.2 613.08-7.35L613.08-7.35 615.93-5.3Q614.68-2.65 612.03-1.03 609.38 0.6 605.74 0.6ZM605.74-23.05L605.74-23.05Q604.08-23.05 602.74-22.48 601.38-21.9 600.41-20.85 599.43-19.8 598.88-18.38 598.33-16.95 598.33-15.25L598.33-15.25 598.33-14.9 612.58-14.9 612.58-15.45Q612.58-18.9 610.71-20.98 608.83-23.05 605.74-23.05ZM631.23 0.6L631.23 0.6Q627.63 0.6 625.21-0.78 622.78-2.15 621.03-4.45L621.03-4.45 623.88-6.75Q625.38-4.85 627.23-3.83 629.08-2.8 631.53-2.8L631.53-2.8Q634.08-2.8 635.51-3.9 636.93-5 636.93-7L636.93-7Q636.93-8.5 635.96-9.58 634.98-10.65 632.43-11.05L632.43-11.05 630.38-11.35Q628.58-11.6 627.08-12.13 625.58-12.65 624.46-13.53 623.33-14.4 622.71-15.7 622.08-17 622.08-18.8L622.08-18.8Q622.08-20.7 622.78-22.13 623.48-23.55 624.71-24.5 625.93-25.45 627.63-25.93 629.33-26.4 631.28-26.4L631.28-26.4Q634.43-26.4 636.56-25.3 638.68-24.2 640.28-22.25L640.28-22.25 637.63-19.85Q636.78-21.05 635.13-22.03 633.48-23 630.98-23L630.98-23Q628.48-23 627.21-21.93 625.93-20.85 625.93-19L625.93-19Q625.93-17.1 627.21-16.25 628.48-15.4 630.88-15L630.88-15 632.88-14.7Q637.18-14.05 638.98-12.23 640.78-10.4 640.78-7.45L640.78-7.45Q640.78-3.7 638.23-1.55 635.68 0.6 631.23 0.6ZM658.18 0L653.18 0Q651.08 0 650-1.18 648.93-2.35 648.93-4.25L648.93-4.25 648.93-22.3 644.68-22.3 644.68-25.8 647.08-25.8Q648.38-25.8 648.85-26.33 649.33-26.85 649.33-28.15L649.33-28.15 649.33-32.95 652.93-32.95 652.93-25.8 658.58-25.8 658.58-22.3 652.93-22.3 652.93-3.5 658.18-3.5 658.18 0ZM674.53 0.6L674.53 0.6Q671.88 0.6 669.75-0.35 667.63-1.3 666.1-3.08 664.58-4.85 663.75-7.33 662.93-9.8 662.93-12.9L662.93-12.9Q662.93-15.95 663.75-18.45 664.58-20.95 666.1-22.73 667.63-24.5 669.75-25.45 671.88-26.4 674.53-26.4L674.53-26.4Q677.13-26.4 679.18-25.45 681.23-24.5 682.68-22.83 684.13-21.15 684.9-18.85 685.68-16.55 685.68-13.8L685.68-13.8 685.68-11.9 667.13-11.9 667.13-10.7Q667.13-9.05 667.65-7.63 668.18-6.2 669.15-5.15 670.13-4.1 671.55-3.5 672.98-2.9 674.78-2.9L674.78-2.9Q677.23-2.9 679.05-4.05 680.88-5.2 681.88-7.35L681.88-7.35 684.73-5.3Q683.48-2.65 680.83-1.03 678.18 0.6 674.53 0.6ZM674.53-23.05L674.53-23.05Q672.88-23.05 671.53-22.48 670.18-21.9 669.2-20.85 668.23-19.8 667.68-18.38 667.13-16.95 667.13-15.25L667.13-15.25 667.13-14.9 681.38-14.9 681.38-15.45Q681.38-18.9 679.5-20.98 677.63-23.05 674.53-23.05ZM696.27 0L692.27 0 692.27-25.8 696.27-25.8 696.27-21.05 696.52-21.05Q697.22-22.9 699.02-24.35 700.82-25.8 703.97-25.8L703.97-25.8 705.52-25.8 705.52-21.8 703.17-21.8Q699.92-21.8 698.1-20.58 696.27-19.35 696.27-17.5L696.27-17.5 696.27 0Z" opacity="1" transform="matrix(1,0,0,1,0,0)" fill="#dcdcdc" class="undefined-text-1" data-fill-palette-color="secondary" id="text-1"></path></svg></g></svg></g></svg></g></svg></g><g><svg viewBox="0 0 118.656 118.44977151661381" height="118.44977151661381" width="118.656"><g><svg xmlns="http://www.w3.org/2000/svg" xmlns:xlink="http://www.w3.org/1999/xlink" version="1.1" x="0" y="0" viewBox="6.965676307678223 7.39900016784668 498.06866455078125 497.2030029296875" enable-background="new 0 0 512 512" xml:space="preserve" height="118.44977151661381" width="118.656" class="icon-icon-0" data-fill-palette-color="accent" id="icon-0"><g fill="#dcdcdc" data-fill-palette-color="accent"><path fill="#dcdcdc" d="M243.236 7.399c-9.125 0.561-17.121 0.738-25.042 1.602-19.169 2.091-33.101 11.414-39.045 30.377-2.596 8.281-4.27 16.874-5.94 25.408-0.514 2.628-1.342 3.4-3.895 3.717-11.982 1.487-24.016 2.781-35.869 5.008-9.816 1.844-19.349 5.124-27.062 11.947-9.162 8.105-7.824 19.372 1.889 26.266 11.358 8.061 26.232 4.53 39.182 4.41 7.129-0.066 14.258-0.111 21.387-0.153 20.992-0.124 41.983-0.205 62.975-0.266 22.299-0.065 44.599-0.109 66.898-0.093 12.666 0.009 25.725 0.016 38.539 0.294 11.742 0.254 25.127 3.135 36.165-2.043 8.104-3.802 12.58-12.206 9.378-20.873-3.87-10.474-16.921-14.994-26.63-18.027-13.517-4.222-27.563-5.611-41.636-6.511-2.466-0.158-3.163-1.066-3.649-3.5-1.704-8.53-3.329-17.134-5.93-25.413-5.457-17.372-17.629-27.416-35.639-29.879C260.316 8.439 251.205 8.067 243.236 7.399z" data-fill-palette-color="accent"></path><path fill="#dcdcdc" d="M326.155 148.994c-0.437-2.764-5.349-3.563-5.402-3.57-6.182-0.841-11.596-1.402-16.551-1.715-7.456-0.472-14.087-0.701-20.272-0.701-8.781 0-16.762 0.457-24.4 1.398-5.538 0.683-11.497 1.329-17.484 1.428-6.048-0.1-12.007-0.745-17.545-1.428-7.637-0.941-15.618-1.398-24.399-1.398-6.185 0-12.816 0.229-20.271 0.701-4.955 0.313-10.369 0.874-16.555 1.715-0.05 0.007-4.96 0.805-5.399 3.575-0.317 2.045-0.585 5.806 1.181 8.007 2.362 2.946 3.432 5.697 3.575 9.199 0.297 7.213 2.343 14.213 6.083 20.808 3.648 6.414 9.21 10.198 16.53 11.247 4.919 0.709 9.742 1.068 14.336 1.068 4.542 0 9.023-0.35 13.319-1.042 10.229-1.652 17.317-7.429 20.498-16.705 1.665-4.859 2.755-9.945 3.809-14.863 0.294-1.374 0.588-2.746 0.895-4.113 0.709-3.157 1.783-3.736 3.914-3.803 2.13 0.066 3.204 0.645 3.913 3.802 0.307 1.369 0.601 2.744 0.896 4.119 1.053 4.917 2.143 10.001 3.808 14.859 3.18 9.276 10.268 15.053 20.499 16.705 4.296 0.691 8.776 1.042 13.318 1.042 4.593 0 9.416-0.359 14.334-1.067 7.322-1.049 12.884-4.833 16.532-11.249 3.739-6.594 5.785-13.594 6.081-20.806 0.144-3.502 1.213-6.253 3.575-9.198C326.741 154.806 326.473 151.046 326.155 148.994zM273.418 189.592c-9.976-1.733-15.459-7.503-16.76-17.641-0.208-1.611-0.318-3.289-0.425-4.911-0.073-1.111-0.148-2.26-0.255-3.398-0.354-3.845 1.299-6.547 4.782-7.813 4.5-1.639 8.965-2.708 13.271-3.176 3.977-0.432 7.563-0.642 10.963-0.642 6.192 0 11.726 0.701 16.922 2.142 7.942 2.199 9.772 4.646 9.326 12.466-0.296 5.026-1.266 9.819-2.806 13.86-2.143 5.619-7.01 8.743-14.878 9.55-2.069 0.211-4.218 0.299-6.494 0.393-1.048 0.043-2.136 0.088-3.28 0.147-0.906-0.079-1.865-0.142-2.858-0.208C278.47 190.197 275.929 190.029 273.418 189.592zM203.106 190.361c-0.993 0.066-1.952 0.13-2.858 0.208-1.143-0.058-2.231-0.103-3.279-0.147-2.276-0.094-4.425-0.182-6.493-0.393-7.869-0.808-12.736-3.931-14.879-9.55-1.54-4.041-2.511-8.834-2.807-13.857-0.446-7.823 1.385-10.271 9.327-12.47 5.194-1.441 10.729-2.142 16.921-2.142 3.4 0 6.986 0.21 10.964 0.642 4.306 0.469 8.771 1.537 13.272 3.177 3.482 1.265 5.135 3.966 4.781 7.809-0.107 1.141-0.182 2.29-0.255 3.402-0.107 1.622-0.217 3.299-0.425 4.91-1.301 10.137-6.783 15.907-16.76 17.64C208.105 190.029 205.564 190.197 203.106 190.361z" data-fill-palette-color="accent"></path><path fill="#dcdcdc" d="M334.571 230.606c-5.09-2.797-11.28-3.292-17.011-1.348-0.278 0.096-0.409 0.389-0.308 0.661 0.146 0.399 0.429 0.273 0.742 0.298 0.803 0.071 2.025 0.025 2.833 0.066 1.586 0.081 2.792 0.242 4.327 0.661 3.141 0.863 5.726 2.828 6.852 5.958 2.883 8.034-6.266 15.779-16.259 14.249-13.164-2.02-20.167-11.149-29.024-20.046-1.828-1.833-3.444-3.817-5.08-5.776-9.422-11.255-28.201-10.392-37.683 0.833-0.485 0.571-0.975 1.136-1.57 1.833-0.096 0.116-0.232 0.177-0.374 0.182-0.141-0.005-0.278-0.066-0.374-0.182-0.596-0.697-1.086-1.262-1.57-1.833-9.483-11.225-28.261-12.088-37.683-0.833-1.636 1.959-3.252 3.944-5.08 5.776-8.857 8.897-15.86 18.026-29.024 20.046-9.993 1.53-19.142-6.216-16.259-14.249 1.126-3.131 3.711-5.095 6.852-5.958 1.535-0.419 2.742-0.581 4.327-0.661 0.808-0.04 2.03 0.005 2.833-0.066 0.313-0.025 0.596 0.101 0.742-0.298 0.101-0.273-0.03-0.566-0.308-0.661-5.731-1.944-11.922-1.449-17.011 1.348-6.216 3.418-8.776 9.104-7.109 15.567 2.212 8.564 8.872 13.901 18.107 17.213 9.372 3.363 19.218 5.226 29.397 5.938 14.628 1.03 28.544-0.651 41.167-7.332 3.752-1.984 7.317-4.216 10.967-6.347 0.01-0.005 0.015-0.01 0.025-0.01 0.01 0 0.015 0.005 0.025 0.01 3.651 2.131 7.216 4.363 10.967 6.347 12.623 6.68 26.539 8.362 41.167 7.332 10.18-0.712 20.026-2.575 29.397-5.938 9.235-3.312 15.895-8.65 18.107-17.213C343.347 239.71 340.787 234.024 334.571 230.606z" data-fill-palette-color="accent"></path><path fill="#dcdcdc" d="M341.472 475.701c-27.338-30.775-28.119-76.001-1.875-107.635 14.423-17.338 35.324-27.624 57.904-28.947-0.241-1.295-0.357-2.592-0.401-3.909-5.055-1.315-10.1-2.657-15.167-3.933-25.307-6.405-50.693-12.654-76.001-18.981-1.484-0.39-3.125-0.234-5.624-0.469-0.312 1.172-0.625 2.343-1.015 3.515-4.374 16.325-8.514 32.728-13.513 48.819-6.015 19.293-12.732 38.352-19.371 57.489-0.781 2.109-1.719 4.14-2.812 6.171-1.172-8.67-2.656-20.074-4.14-31.244-2.734-20.933-5.311-41.242-5.311-41.945 1.094-2.421 2.031-4.686 3.046-6.874 0.078-0.312 0.234-0.625 0.39-0.937 0.547-1.328 1.171-2.734 1.796-3.984 0.313-0.469 0.547-1.093 0.859-1.562 0.86-1.797 1.953-3.671 1.953-5.936 0-1.875-0.781-3.671-1.328-5.077l-0.312-0.625c-0.078-0.313-0.078-0.469-0.313-0.86-0.156-0.469-0.469-1.015-0.781-1.562l-0.078-0.312c-0.156-0.078-0.312-0.312-0.312-0.469-0.39-0.625-0.859-1.015-1.25-1.328-0.859-0.547-1.64-0.781-2.265-0.937h-1.562c-0.39-0.313-1.015-0.313-1.25-0.313-2.109-0.078-7.342-0.078-14.06-0.078-6.64 0-12.029 0-14.06 0.078-0.469 0-0.859 0-1.406 0.313h-1.328c-1.015 0.234-2.343 0.547-3.593 2.265-0.078 0.156-0.078 0.39-0.234 0.703l-0.156 0.078c-0.078 0.156-0.156 0.235-0.234 0.391-1.172 1.171-1.875 2.812-1.953 4.765-0.235 0.859-0.469 1.875-0.469 2.968 0 2.265 1.015 4.14 1.953 5.936 0.078 0.078 0.156 0.312 0.234 0.469 0.235 0.39 0.469 0.781 0.625 1.093 0.547 1.25 1.25 2.656 1.796 3.984 0.078 0.156 0.235 0.469 0.313 0.703 1.015 2.343 2.03 4.686 3.046 7.108 0 0.391-0.547 4.999-1.406 12.029-2.109 15.856-5.78 43.898-8.123 61.16-1.015-2.03-2.031-4.061-2.734-6.171-6.717-19.137-13.435-38.196-19.449-57.489-4.921-16.169-9.139-32.572-13.513-48.975-0.39-1.094-0.625-2.187-0.937-3.359-2.578 0.235-4.218 0.078-5.624 0.469-22.73 5.702-45.382 11.248-68.033 16.95-0.078 0-0.078 0.078-0.078 0.078-19.293 4.843-38.664 9.842-57.957 14.997-6.483 1.797-12.732 7.265-17.341 12.654-0.312 0.312-0.625 0.703-0.937 1.093-4.452 5.468-6.952 12.888-9.217 19.84-7.186 21.792-8.983 44.366-10.076 67.018-0.078 2.812-0.235 5.702-0.313 8.514-0.625 16.169-3.046 13.044 12.732 19.684 3.827 1.64 7.811 3.046 11.795 4.374 28.51 9.217 57.489 15.387 86.702 19.449 28.667 4.061 57.645 6.092 86.624 7.186 5.624 0.156 49.912 0.469 49.912 0.469 5.624-0.156 11.17-0.312 16.715-0.469 32.416-1.25 64.753-3.671 96.7-8.67C358.422 490.854 349.049 484.215 341.472 475.701z" data-fill-palette-color="accent"></path><path fill="#dcdcdc" d="M500.027 482.96c-6.177-4.896-12.428-9.791-18.605-14.689-1.205-0.978-2.485-1.958-3.691-2.937-5.574-4.369-11.148-8.738-16.797-13.181 17.249-33.518 4.218-70.804-23.802-87.902-28.02-17.173-64.702-11.223-85.491 13.784-21.316 25.685-20.563 62.443 1.507 87.224 21.843 24.405 63.271 31.183 93.626 5.046 0.527 0.528 1.055 1.281 1.732 1.808 4.972 3.917 9.867 7.834 14.839 11.751 7.381 5.875 14.838 11.751 22.22 17.551 5.574 4.368 12.805 3.691 16.948-1.582C506.656 494.559 505.601 487.404 500.027 482.96zM406.572 471.838c-26.325 2.188-51.661-16.514-55.049-45.026-3.458-28.724 17.079-53.918 46.015-57.095 27.383-3.034 52.72 17.573 55.755 45.24C456.751 442.761 436.002 469.439 406.572 471.838z" data-fill-palette-color="accent"></path></g></svg></g></svg></g></svg></g></svg></g></svg></g></svg></g><defs></defs></svg><rect width="320" height="360" fill="none" stroke="none" visibility="hidden"></rect></g></svg></g></svg>